<svg width="20.000000" height="20.000000" viewBox="0 0 20 20" fill="none" xmlns="http://www.w3.org/2000/svg" xmlns:xlink="http://www.w3.org/1999/xlink">
	<desc>
			Created with Pixso.
	</desc>
	<defs>
		<clipPath id="clip6_330">
			<rect id="hh.ru__min_ 1" width="20.000000" height="20.000000" fill="white" fill-opacity="0"/>
		</clipPath>
	</defs>
	<rect id="hh.ru__min_ 1" width="20.000000" height="20.000000" fill="#FFFFFF" fill-opacity="0"/>
	<g clip-path="url(#clip6_330)">
		<path id="Vector" d="M10 20C15.52 20 20 15.52 20 10C20 4.47 15.52 0 10 0C4.47 0 0 4.47 0 10C0 15.52 4.47 20 10 20Z" fill="#505050" fill-opacity="1.000000" fill-rule="nonzero"/>
		<path id="Vector" d="M5.68 5.48L5.68 8.88C6.2 8.27 6.82 7.96 7.54 7.96C7.91 7.96 8.24 8.03 8.54 8.17C8.84 8.31 9.06 8.49 9.21 8.7C9.37 8.92 9.47 9.16 9.52 9.43C9.58 9.69 9.61 10.1 9.61 10.66L9.61 14.3L8 14.3L8 11.02C8 10.37 7.97 9.96 7.91 9.78C7.85 9.61 7.74 9.46 7.58 9.37C7.43 9.26 7.24 9.21 7 9.21C6.74 9.21 6.5 9.28 6.29 9.41C6.08 9.54 5.92 9.74 5.83 10.01C5.73 10.28 5.68 10.67 5.68 11.19L5.68 14.3L4.07 14.3L4.07 5.48L5.68 5.48L5.68 5.48ZM12.02 5.48L12.02 8.88C12.54 8.27 13.16 7.96 13.88 7.96C14.25 7.96 14.58 8.03 14.88 8.17C15.18 8.31 15.4 8.49 15.55 8.7C15.7 8.92 15.81 9.17 15.86 9.43C15.92 9.69 15.94 10.1 15.94 10.66L15.94 14.3L14.34 14.3L14.34 11.02C14.34 10.37 14.3 9.96 14.24 9.78C14.19 9.61 14.07 9.46 13.92 9.37C13.77 9.26 13.57 9.21 13.34 9.21C13.07 9.21 12.83 9.28 12.63 9.41C12.42 9.54 12.26 9.74 12.16 10.01C12.07 10.28 12.02 10.67 12.02 11.19L12.02 14.3L10.41 14.3L10.41 5.48L12.02 5.48Z" fill="#FFFFFF" fill-opacity="1.000000" fill-rule="nonzero"/>
	</g>
</svg>
