<svg width="24.000000" height="24.000000" viewBox="0 0 24 24" fill="none" xmlns="http://www.w3.org/2000/svg" xmlns:xlink="http://www.w3.org/1999/xlink">
	<desc>
			Created with Pixso.
	</desc>
	<defs>
		<clipPath id="clip3_44">
			<rect id="Outline / Chart Outline" width="24.000000" height="24.000000" fill="white" fill-opacity="0"/>
		</clipPath>
	</defs>
	<rect id="Outline / Chart Outline" width="24.000000" height="24.000000" fill="#FFFFFF" fill-opacity="0"/>
	<g clip-path="url(#clip3_44)">
		<path id="Union" d="M17.07 7.69C18.18 7.69 19.07 6.79 19.07 5.69C19.07 4.58 18.18 3.69 17.07 3.69C15.97 3.69 15.07 4.58 15.07 5.69C15.07 5.98 15.14 6.26 15.25 6.51L13.01 8.59C12.71 8.41 12.37 8.31 12 8.31C11.42 8.31 10.91 8.55 10.55 8.93L8.89 8.04C8.91 7.93 8.92 7.81 8.92 7.69C8.92 6.58 8.02 5.69 6.92 5.69C5.81 5.69 4.92 6.58 4.92 7.69C4.92 8.79 5.81 9.69 6.92 9.69C7.43 9.69 7.9 9.49 8.25 9.18L10 10.12C10 10.18 10 10.25 10 10.31C10 11.42 10.89 12.31 12 12.31C13.1 12.31 14 11.42 14 10.31C14 10.05 13.95 9.8 13.86 9.58L16.14 7.46C16.42 7.6 16.74 7.69 17.07 7.69ZM17.07 6.39C17.46 6.39 17.77 6.07 17.77 5.69C17.77 5.3 17.46 4.99 17.07 4.99C16.69 4.99 16.37 5.3 16.37 5.69C16.37 6.07 16.69 6.39 17.07 6.39ZM6.92 8.39C7.3 8.39 7.62 8.07 7.62 7.69C7.62 7.3 7.3 6.99 6.92 6.99C6.53 6.99 6.22 7.3 6.22 7.69C6.22 8.07 6.53 8.39 6.92 8.39ZM19.02 10.99L19.02 18.69L20.06 18.69C20.42 18.69 20.71 18.98 20.71 19.34C20.71 19.7 20.42 19.99 20.06 19.99L3.93 19.99C3.57 19.99 3.28 19.7 3.28 19.34C3.28 18.98 3.57 18.69 3.93 18.69L4.97 18.69L4.97 12.99C4.97 11.91 5.84 11.04 6.92 11.04C7.99 11.04 8.87 11.91 8.87 12.99L8.87 18.69L10.05 18.69L10.05 15.55C10.05 14.47 10.92 13.6 12 13.6C13.07 13.6 13.95 14.47 13.95 15.55L13.95 18.69L15.12 18.69L15.12 10.99C15.12 9.91 16 9.04 17.07 9.04C18.15 9.04 19.02 9.91 19.02 10.99ZM12.7 10.31C12.7 10.7 12.38 11.01 12 11.01C11.61 11.01 11.3 10.7 11.3 10.31C11.3 9.92 11.61 9.61 12 9.61C12.38 9.61 12.7 9.92 12.7 10.31ZM17.72 10.99L17.72 18.69L16.42 18.69L16.42 10.99C16.42 10.63 16.71 10.34 17.07 10.34C17.43 10.34 17.72 10.63 17.72 10.99ZM6.27 12.99L6.27 18.69L7.57 18.69L7.57 12.99C7.57 12.63 7.28 12.34 6.92 12.34C6.56 12.34 6.27 12.63 6.27 12.99ZM12.65 15.55L12.65 18.69L11.35 18.69L11.35 15.55C11.35 15.19 11.64 14.9 12 14.9C12.35 14.9 12.65 15.19 12.65 15.55Z" fill="#5095EC" fill-opacity="1.000000" fill-rule="evenodd"/>
	</g>
</svg>
