<svg width="20.000000" height="20.000000" viewBox="0 0 20 20" fill="none" xmlns="http://www.w3.org/2000/svg" xmlns:xlink="http://www.w3.org/1999/xlink">
	<desc>
			Created with Pixso.
	</desc>
	<defs>
		<clipPath id="clip8_728">
			<rect id="Outline / Settings Outline" width="20.000000" height="20.000000" fill="white" fill-opacity="0"/>
		</clipPath>
	</defs>
	<rect id="Outline / Settings Outline" width="20.000000" height="20.000000" fill="#FFFFFF" fill-opacity="0"/>
	<g clip-path="url(#clip8_728)">
		<path id="Union" d="M7.68 3.77C7.78 3.04 8.41 2.5 9.15 2.5L10.74 2.5C11.47 2.5 12.09 3.03 12.2 3.75C12.35 4.68 13.34 5.24 14.23 4.88C14.91 4.61 15.69 4.87 16.06 5.51L16.86 6.89C17.23 7.53 17.08 8.33 16.51 8.79C15.77 9.38 15.78 10.52 16.54 11.1C17.12 11.56 17.28 12.37 16.91 13.01L16.11 14.39C15.75 15.02 14.98 15.29 14.3 15.03C13.37 14.67 12.36 15.26 12.2 16.24C12.09 16.96 11.47 17.49 10.74 17.49L9.15 17.49C8.41 17.49 7.78 16.95 7.68 16.22C7.55 15.27 6.57 14.69 5.69 15.03C5.01 15.29 4.24 15.02 3.88 14.39L3.08 13.01C2.71 12.37 2.87 11.56 3.45 11.1C4.21 10.52 4.22 9.38 3.48 8.79C2.91 8.33 2.76 7.53 3.13 6.89L3.93 5.51C4.3 4.87 5.08 4.61 5.76 4.88C6.61 5.23 7.56 4.68 7.68 3.77ZM9.15 3.58C8.95 3.58 8.78 3.73 8.76 3.92C8.53 5.53 6.86 6.5 5.36 5.89C5.17 5.81 4.96 5.88 4.86 6.06L4.07 7.44C3.97 7.6 4.01 7.82 4.16 7.94C5.45 8.98 5.41 10.95 4.12 11.96C3.96 12.08 3.92 12.3 4.02 12.47L4.81 13.85C4.91 14.02 5.12 14.09 5.3 14.02C6.84 13.42 8.53 14.44 8.76 16.07C8.78 16.26 8.95 16.41 9.15 16.41L10.74 16.41C10.94 16.41 11.1 16.27 11.13 16.07C11.39 14.41 13.12 13.41 14.69 14.02C14.87 14.09 15.08 14.02 15.18 13.85L15.97 12.47C16.07 12.3 16.03 12.08 15.87 11.96C14.58 10.95 14.54 8.98 15.83 7.94C15.98 7.82 16.02 7.6 15.92 7.44L15.13 6.06C15.03 5.88 14.82 5.81 14.63 5.89C13.11 6.5 11.39 5.55 11.13 3.92C11.1 3.72 10.94 3.58 10.74 3.58L9.15 3.58ZM9.99 13.33C11.84 13.33 13.33 11.84 13.33 10C13.33 8.15 11.84 6.66 9.99 6.66C8.15 6.66 6.66 8.15 6.66 10C6.66 11.84 8.15 13.33 9.99 13.33ZM9.99 12.25C11.24 12.25 12.24 11.24 12.24 10C12.24 8.75 11.24 7.75 9.99 7.75C8.75 7.75 7.74 8.75 7.74 10C7.74 11.24 8.75 12.25 9.99 12.25Z" fill="#505050" fill-opacity="1.000000" fill-rule="evenodd"/>
	</g>
</svg>
