<svg width="20.000000" height="20.000000" viewBox="0 0 20 20" fill="none" xmlns="http://www.w3.org/2000/svg" xmlns:xlink="http://www.w3.org/1999/xlink">
	<desc>
			Created with Pixso.
	</desc>
	<defs>
		<clipPath id="clip8_717">
			<rect id="Outline / People Outline" width="20.000000" height="20.000000" fill="white" fill-opacity="0"/>
		</clipPath>
	</defs>
	<rect id="Outline / People Outline" width="20.000000" height="20.000000" fill="#FFFFFF" fill-opacity="0"/>
	<g clip-path="url(#clip8_717)">
		<path id="Union" d="M4.49 6.64C4.24 4.43 5.96 2.5 8.18 2.5C10.41 2.5 12.13 4.43 11.88 6.64L11.66 8.56C11.46 10.33 9.96 11.66 8.18 11.66C6.4 11.66 4.91 10.33 4.71 8.56L4.49 6.64ZM11.81 11.66C11.49 11.66 11.38 11.28 11.57 11.03C11.61 10.98 11.65 10.93 11.69 10.88C11.82 10.7 12.03 10.58 12.26 10.54C13.28 10.34 14.09 9.5 14.21 8.43L14.42 6.51C14.58 5.19 13.72 4 12.49 3.67C12.2 3.59 11.93 3.43 11.74 3.2C11.69 3.15 11.65 3.1 11.61 3.05C11.42 2.84 11.53 2.5 11.81 2.5C14.03 2.5 15.75 4.43 15.5 6.64L15.28 8.56C15.08 10.33 13.59 11.66 11.81 11.66ZM10.8 6.51L10.59 8.43C10.45 9.66 9.41 10.58 8.18 10.58C6.96 10.58 5.92 9.66 5.78 8.43L5.56 6.51C5.39 4.95 6.61 3.58 8.18 3.58C9.76 3.58 10.98 4.95 10.8 6.51ZM1.76 16.41C2.27 14.12 4.3 12.5 6.64 12.5L9.73 12.5C12.07 12.5 14.1 14.12 14.61 16.41L14.69 16.79C14.77 17.15 14.5 17.5 14.12 17.5L2.25 17.5C1.87 17.5 1.59 17.15 1.68 16.79L1.76 16.41ZM15.6 16.92C15.6 17.2 15.8 17.5 16.09 17.5L17.74 17.5C18.12 17.5 18.39 17.15 18.31 16.79L18.23 16.41C17.81 14.53 16.37 13.1 14.57 12.65C14.09 12.53 13.83 13.1 14.13 13.49C14.24 13.63 14.39 13.71 14.56 13.77C15.78 14.17 16.75 15.14 17.11 16.41L16.04 16.41C15.78 16.41 15.6 16.65 15.6 16.92ZM9.73 13.58C11.48 13.58 13.01 14.74 13.49 16.41L2.88 16.41C3.36 14.74 4.88 13.58 6.64 13.58L9.73 13.58Z" fill="#505050" fill-opacity="1.000000" fill-rule="evenodd"/>
	</g>
</svg>
