<svg width="24.000000" height="24.000000" viewBox="0 0 24 24" fill="none" xmlns="http://www.w3.org/2000/svg" xmlns:xlink="http://www.w3.org/1999/xlink">
	<desc>
			Created with Pixso.
	</desc>
	<defs/>
	<rect id="Outline / Scheme Outline" width="24.000000" height="24.000000" fill="#FFFFFF" fill-opacity="0"/>
	<path id="Union" d="M19.45 2.34C18.99 1.88 18.24 1.88 17.77 2.34L15.58 4.54C15.12 5 15.12 5.75 15.58 6.22L17.77 8.41C18.24 8.87 18.99 8.87 19.45 8.41L21.65 6.22C22.11 5.75 22.11 5 21.65 4.54L19.45 2.34ZM3.7 2.38C2.98 2.38 2.4 2.96 2.4 3.68L2.4 7.08C2.4 7.79 2.98 8.38 3.7 8.38L7.1 8.38C7.82 8.38 8.4 7.79 8.4 7.08L8.4 3.68C8.4 2.96 7.82 2.38 7.1 2.38L3.7 2.38ZM20.65 5.38L18.61 3.34L16.58 5.38L18.61 7.41L20.65 5.38ZM3.7 3.68L7.1 3.68L7.1 7.08L3.7 7.08L3.7 3.68ZM10.35 4.73C9.99 4.73 9.7 5.02 9.7 5.38C9.7 5.74 9.99 6.03 10.35 6.03L13.28 6.03C13.64 6.03 13.93 5.74 13.93 5.38C13.93 5.02 13.64 4.73 13.28 4.73L10.35 4.73ZM10.22 16.49L11.74 17.95L8.41 17.95C7.11 17.95 6.06 16.9 6.06 15.6L6.06 10.33C6.06 9.97 5.77 9.68 5.41 9.68C5.05 9.68 4.76 9.97 4.76 10.33L4.76 15.6C4.76 17.62 6.39 19.25 8.41 19.25L11.73 19.25L10.23 20.71C9.98 20.96 9.98 21.37 10.23 21.63C10.48 21.88 10.9 21.88 11.15 21.63L14.12 19.06C14.37 18.81 14.37 18.4 14.12 18.14L11.14 15.57C10.89 15.32 10.48 15.32 10.22 15.57C9.97 15.83 9.97 16.24 10.22 16.49ZM19.26 10.7C19.26 10.34 18.97 10.05 18.61 10.05C18.25 10.05 17.96 10.34 17.96 10.7L17.96 13.67C17.96 14.03 18.25 14.32 18.61 14.32C18.97 14.32 19.26 14.03 19.26 13.67L19.26 10.7ZM15.61 18.62C15.61 16.96 16.96 15.62 18.61 15.62C20.27 15.62 21.61 16.96 21.61 18.62C21.61 20.28 20.27 21.62 18.61 21.62C16.96 21.62 15.61 20.28 15.61 18.62ZM16.91 18.62C16.91 17.68 17.67 16.92 18.61 16.92C19.55 16.92 20.31 17.68 20.31 18.62C20.31 19.56 19.55 20.32 18.61 20.32C17.67 20.32 16.91 19.56 16.91 18.62Z" fill="#505050" fill-opacity="1.000000" fill-rule="evenodd"/>
</svg>
