<svg width="24.000000" height="24.000000" viewBox="0 0 24 24" fill="none" xmlns="http://www.w3.org/2000/svg" xmlns:xlink="http://www.w3.org/1999/xlink">
	<desc>
			Created with Pixso.
	</desc>
	<defs>
		<clipPath id="clip8_603">
			<rect id="Outline / Update Outline" width="24.000000" height="24.000000" fill="white" fill-opacity="0"/>
		</clipPath>
	</defs>
	<rect id="Outline / Update Outline" width="24.000000" height="24.000000" fill="#FFFFFF" fill-opacity="0"/>
	<g clip-path="url(#clip8_603)">
		<path id="Union" d="M12.97 7.76C12.97 7.95 13.04 8.12 13.17 8.24C13.29 8.35 13.43 8.42 13.61 8.42L17.35 8.4C17.77 8.41 18.1 8.06 18.06 7.64L17.77 3.99C17.74 3.63 17.43 3.36 17.08 3.39C16.72 3.42 16.44 3.73 16.48 4.09L16.66 6.12C15.38 5.1 13.76 4.49 12 4.49C7.85 4.49 4.5 7.85 4.5 11.99C4.5 12.26 4.51 12.53 4.54 12.79C4.58 13.17 4.96 13.4 5.33 13.29C5.65 13.2 5.85 12.88 5.82 12.54C5.8 12.36 5.79 12.18 5.79 11.99C5.79 8.57 8.57 5.79 12 5.79C13.42 5.79 14.74 6.28 15.79 7.09L15.78 7.1L13.63 7.12C13.27 7.12 12.98 7.4 12.97 7.76ZM10.49 15.77C10.49 15.58 10.42 15.41 10.29 15.29C10.17 15.18 10.03 15.11 9.85 15.11L6.11 15.13C5.69 15.12 5.36 15.47 5.4 15.89L5.69 19.54C5.72 19.9 6.03 20.17 6.38 20.14C6.74 20.11 7.02 19.81 6.98 19.45L6.8 17.4C8.14 18.7 9.98 19.49 12 19.49C16.14 19.49 19.5 16.14 19.5 11.99C19.5 11.49 19.44 10.99 19.35 10.51C19.27 10.14 18.88 9.95 18.53 10.07C18.21 10.19 18.03 10.54 18.09 10.88C18.16 11.24 18.2 11.61 18.2 11.99C18.2 15.42 15.42 18.2 12 18.2C10.31 18.2 8.79 17.53 7.67 16.44L7.68 16.43L9.83 16.41C10.19 16.42 10.48 16.13 10.49 15.77Z" fill="#505050" fill-opacity="1.000000" fill-rule="evenodd"/>
	</g>
</svg>
