<svg width="24.000000" height="24.000000" viewBox="0 0 24 24" fill="none" xmlns="http://www.w3.org/2000/svg" xmlns:xlink="http://www.w3.org/1999/xlink">
	<desc>
			Created with Pixso.
	</desc>
	<defs>
		<clipPath id="clip8_597">
			<rect id="Outline / Close Outline" width="24.000000" height="24.000000" fill="white" fill-opacity="0"/>
		</clipPath>
	</defs>
	<rect id="Outline / Close Outline" width="24.000000" height="24.000000" fill="#FFFFFF" fill-opacity="0"/>
	<g clip-path="url(#clip8_597)">
		<path id="Union" d="M6.4 5.49C6.15 5.23 5.74 5.23 5.49 5.49C5.23 5.74 5.23 6.15 5.49 6.4L11.08 12L5.59 17.49C5.33 17.74 5.33 18.15 5.59 18.4C5.84 18.66 6.25 18.66 6.5 18.4L12 12.91L17.49 18.4C17.74 18.66 18.15 18.66 18.4 18.4C18.66 18.15 18.66 17.74 18.4 17.49L12.91 12L18.5 6.4C18.76 6.15 18.76 5.74 18.5 5.49C18.25 5.23 17.84 5.23 17.59 5.49L12 11.08L6.4 5.49Z" fill="#505050" fill-opacity="1.000000" fill-rule="nonzero"/>
	</g>
</svg>
