<svg width="24.000000" height="24.000000" viewBox="0 0 24 24" fill="none" xmlns="http://www.w3.org/2000/svg" xmlns:xlink="http://www.w3.org/1999/xlink">
	<desc>
			Created with Pixso.
	</desc>
	<defs>
		<clipPath id="clip6_2143">
			<rect id="Outline / Finance Outline" width="24.000000" height="24.000000" fill="white" fill-opacity="0"/>
		</clipPath>
	</defs>
	<rect id="Outline / Finance Outline" width="24.000000" height="24.000000" fill="#FFFFFF" fill-opacity="0"/>
	<g clip-path="url(#clip6_2143)">
		<path id="Union" d="M3 5.55L3 8.64C3 8.66 3 8.67 3 8.68L3 14.68C3.06 15.93 5.24 16.97 7.73 17.22C8.1 17.26 8.41 16.96 8.41 16.59C8.41 16.25 8.14 15.96 7.79 15.93C6.81 15.83 5.78 15.62 5.21 15.35C4.82 15.16 4.57 14.97 4.43 14.82C4.36 14.74 4.32 14.69 4.31 14.65C4.3 14.64 4.3 14.63 4.3 14.62L4.3 13.25C5.17 13.74 6.4 14.09 7.72 14.23C8.09 14.26 8.4 13.97 8.4 13.6C8.4 13.25 8.13 12.96 7.78 12.93C6.78 12.83 5.74 12.61 5.17 12.34C4.42 11.98 4.32 11.69 4.3 11.64L4.3 11.64L4.3 10.28C5.18 10.79 6.43 11.16 7.78 11.29C8.18 11.33 8.49 11.13 8.74 10.81C8.91 10.59 8.8 10.05 8.51 10.04C8.38 10.03 8.24 10.02 8.11 10.01C6.96 9.92 5.81 9.65 5.17 9.34C4.42 8.98 4.32 8.69 4.3 8.64L4.3 8.64L4.3 7.35C5.31 7.92 6.81 8.28 8.5 8.28C10.18 8.28 11.69 7.92 12.7 7.35L12.7 7.92C12.7 8.28 13 8.56 13.35 8.56C13.7 8.55 14 8.27 14 7.92L14 5.55C13.99 5.5 13.98 5.46 13.97 5.41C13.75 4.16 11.73 3.16 9.16 3.01C8.94 3 8.72 3 8.5 3C5.55 3 3.14 4.13 3 5.55ZM9.08 4.31C10.16 4.37 11.09 4.61 11.76 4.92C12.15 5.1 12.4 5.29 12.55 5.45C12.62 5.52 12.66 5.58 12.68 5.62C12.69 5.63 12.69 5.63 12.69 5.64C12.68 5.69 12.56 5.98 11.82 6.34C11.04 6.72 9.86 6.98 8.5 6.98C7.13 6.98 5.95 6.72 5.17 6.34C4.48 6.01 4.33 5.73 4.3 5.65L4.3 5.65C4.31 5.64 4.31 5.63 4.32 5.62C4.34 5.58 4.37 5.52 4.44 5.45C4.59 5.29 4.85 5.1 5.24 4.92C6.03 4.55 7.17 4.3 8.5 4.29C8.69 4.3 8.89 4.3 9.08 4.31ZM9.94 15.42L9.94 18.31C10.02 19.78 12.45 20.97 15.44 20.97C18.43 20.97 20.87 19.78 20.94 18.31L20.94 12.5C20.95 12.44 20.95 12.38 20.95 12.32C20.95 10.86 18.49 9.67 15.45 9.67C12.52 9.67 10.12 10.78 9.96 12.17C9.95 12.21 9.95 12.24 9.94 12.28L9.94 15.33L9.94 15.33C9.94 15.36 9.94 15.39 9.94 15.42ZM12.19 11.61C11.52 11.93 11.32 12.22 11.26 12.34C11.29 12.42 11.45 12.69 12.12 13.02C12.91 13.4 14.08 13.66 15.45 13.66C16.82 13.66 17.99 13.4 18.78 13.02C19.4 12.72 19.58 12.46 19.63 12.36C19.59 12.26 19.4 11.95 18.69 11.61C17.91 11.24 16.76 10.98 15.44 10.98C14.12 10.98 12.97 11.24 12.19 11.61ZM15.45 14.96C13.76 14.96 12.25 14.6 11.24 14.02L11.24 15.33C11.26 15.38 11.38 15.67 12.11 16.03C12.9 16.4 14.07 16.67 15.44 16.67C16.81 16.67 17.98 16.4 18.77 16.03C19.51 15.67 19.62 15.37 19.64 15.33L19.64 15.33L19.64 14.03C18.63 14.6 17.13 14.96 15.45 14.96ZM11.24 17.04C12.25 17.61 13.76 17.97 15.44 17.97C17.13 17.97 18.63 17.61 19.64 17.03L19.64 18.25C19.63 18.31 19.51 18.64 18.72 19.02C17.94 19.4 16.78 19.67 15.44 19.67C14.1 19.67 12.95 19.4 12.17 19.02C11.38 18.64 11.26 18.31 11.24 18.25L11.24 17.04Z" fill="#505050" fill-opacity="1.000000" fill-rule="evenodd"/>
	</g>
</svg>
