<svg width="24.000000" height="24.000000" viewBox="0 0 24 24" fill="none" xmlns="http://www.w3.org/2000/svg" xmlns:xlink="http://www.w3.org/1999/xlink">
	<desc>
			Created with Pixso.
	</desc>
	<defs>
		<clipPath id="clip6_2137">
			<rect id="Outline / Person Outline" width="24.000000" height="24.000000" fill="white" fill-opacity="0"/>
		</clipPath>
	</defs>
	<rect id="Outline / Person Outline" width="24.000000" height="24.000000" fill="#FFFFFF" fill-opacity="0"/>
	<g clip-path="url(#clip6_2137)">
		<path id="Union" d="M12 3C9.33 3 7.26 5.32 7.56 7.96L7.82 10.27C8.06 12.39 9.86 14 12 14C14.13 14 15.93 12.39 16.17 10.27L16.43 7.96C16.73 5.32 14.66 3 12 3ZM14.88 10.12L15.14 7.82C15.35 5.94 13.88 4.29 12 4.29C10.11 4.29 8.64 5.94 8.85 7.82L9.11 10.12C9.28 11.59 10.52 12.7 12 12.7C13.47 12.7 14.71 11.59 14.88 10.12ZM10.14 15C7.33 15 4.89 16.95 4.28 19.69L4.18 20.14C4.09 20.58 4.42 21 4.87 21L19.12 21C19.57 21 19.9 20.58 19.81 20.14L19.71 19.69C19.1 16.95 16.66 15 13.85 15L10.14 15ZM18.37 19.7C17.79 17.69 15.95 16.29 13.85 16.29L10.14 16.29C8.04 16.29 6.2 17.69 5.62 19.7L18.37 19.7Z" fill="#505050" fill-opacity="1.000000" fill-rule="evenodd"/>
	</g>
</svg>
