<svg width="24.000000" height="24.000000" viewBox="0 0 24 24" fill="none" xmlns="http://www.w3.org/2000/svg" xmlns:xlink="http://www.w3.org/1999/xlink">
	<desc>
			Created with Pixso.
	</desc>
	<defs>
		<clipPath id="clip8_315">
			<rect id="Outline / Eye Outline" width="24.000000" height="24.000000" fill="white" fill-opacity="0"/>
		</clipPath>
	</defs>
	<rect id="Outline / Eye Outline" width="24.000000" height="24.000000" fill="#FFFFFF" fill-opacity="0"/>
	<g clip-path="url(#clip8_315)">
		<path id="Union" d="M2.43 10.68C3.86 8.65 7.11 5 12 5C16.88 5 20.13 8.65 21.56 10.68C22.12 11.48 22.12 12.51 21.56 13.31C20.13 15.34 16.88 19 12 19C7.11 19 3.86 15.34 2.43 13.31C1.87 12.51 1.87 11.48 2.43 10.68ZM6.3 12C6.3 15.14 8.85 17.7 12 17.7C15.14 17.7 17.7 15.14 17.7 12C17.7 8.85 15.14 6.29 12 6.29C8.85 6.29 6.3 8.85 6.3 12ZM20.5 11.43C19.97 10.69 19.23 9.77 18.29 8.92C18.74 9.85 19 10.89 19 12C19 13.1 18.74 14.14 18.29 15.07C19.23 14.22 19.97 13.3 20.5 12.56C20.74 12.21 20.74 11.78 20.5 11.43ZM3.49 11.43C4.02 10.69 4.76 9.77 5.7 8.92C5.25 9.85 5 10.89 5 12C5 13.1 5.25 14.14 5.7 15.07C4.76 14.22 4.02 13.3 3.49 12.56C3.25 12.21 3.25 11.78 3.49 11.43ZM12 9.7C12 9.31 11.68 8.99 11.3 9.08C9.98 9.39 9 10.58 9 12C9 13.65 10.34 15 12 15C13.41 15 14.6 14.01 14.91 12.69C15 12.31 14.68 12 14.3 12L13.3 12C12.58 12 12 11.41 12 10.7L12 9.7Z" fill="#505050" fill-opacity="1.000000" fill-rule="evenodd"/>
	</g>
</svg>
