<svg width="24.000000" height="24.000000" viewBox="0 0 24 24" fill="none" xmlns="http://www.w3.org/2000/svg" xmlns:xlink="http://www.w3.org/1999/xlink">
	<desc>
			Created with Pixso.
	</desc>
	<defs>
		<clipPath id="clip3_64">
			<rect id="Outline / Calculate Outline" width="24.000000" height="24.000000" fill="white" fill-opacity="0"/>
		</clipPath>
	</defs>
	<rect id="Outline / Calculate Outline" width="24.000000" height="24.000000" fill="#FFFFFF" fill-opacity="0"/>
	<g clip-path="url(#clip3_64)">
		<path id="Union" d="M21 18C21 19.65 19.65 21 18 21L6 21C4.34 21 3 19.65 3 18L3 6C3 5.89 3 5.79 3.01 5.69C3.16 4.18 4.44 3 6 3L18 3C19.65 3 21 4.34 21 6L21 18ZM19.7 6L19.7 11.34L12.65 11.34L12.65 4.3L18 4.3C18.93 4.3 19.7 5.06 19.7 6ZM6 4.3C5.06 4.3 4.3 5.06 4.3 6L4.3 11.34L11.35 11.34L11.35 4.3L6 4.3ZM7.86 10.18C7.51 10.18 7.21 9.89 7.21 9.53L7.21 8.68L6.36 8.68C6.01 8.68 5.71 8.39 5.71 8.03C5.71 7.67 6.01 7.38 6.36 7.38L7.21 7.38L7.21 6.53C7.21 6.17 7.51 5.88 7.86 5.88C8.22 5.88 8.51 6.17 8.51 6.53L8.51 7.38L9.36 7.38C9.72 7.38 10.01 7.67 10.01 8.03C10.01 8.39 9.72 8.68 9.36 8.68L8.51 8.68L8.51 9.53C8.51 9.89 8.22 10.18 7.86 10.18ZM14.6 8.03C14.6 7.67 14.89 7.38 15.25 7.38L17.25 7.38C17.61 7.38 17.9 7.67 17.9 8.03C17.9 8.39 17.61 8.68 17.25 8.68L15.25 8.68C14.89 8.68 14.6 8.39 14.6 8.03ZM4.3 18L4.3 12.64L11.35 12.64L11.35 19.7L6 19.7C5.06 19.7 4.3 18.93 4.3 18ZM18 19.7L12.65 19.7L12.65 12.64L19.7 12.64L19.7 18C19.7 18.93 18.93 19.7 18 19.7ZM8.47 17.67C8.72 17.93 9.13 17.93 9.38 17.67C9.64 17.42 9.64 17.01 9.38 16.75L8.78 16.15L9.38 15.55C9.64 15.3 9.64 14.88 9.38 14.63C9.13 14.38 8.72 14.38 8.47 14.63L7.86 15.23L7.26 14.63C7.01 14.38 6.6 14.38 6.34 14.63C6.09 14.88 6.09 15.3 6.34 15.55L6.95 16.15L6.34 16.75C6.09 17.01 6.09 17.42 6.34 17.67C6.6 17.93 7.01 17.93 7.26 17.67L7.86 17.07L8.47 17.67ZM15.25 14.45C14.89 14.45 14.6 14.74 14.6 15.1C14.6 15.46 14.89 15.75 15.25 15.75L17.25 15.75C17.61 15.75 17.9 15.46 17.9 15.1C17.9 14.74 17.61 14.45 17.25 14.45L15.25 14.45ZM15.25 16.49C14.89 16.49 14.6 16.78 14.6 17.14C14.6 17.49 14.89 17.79 15.25 17.79L17.25 17.79C17.61 17.79 17.9 17.49 17.9 17.14C17.9 16.78 17.61 16.49 17.25 16.49L15.25 16.49Z" fill="#5095EC" fill-opacity="1.000000" fill-rule="evenodd"/>
	</g>
</svg>
