<svg width="24.000000" height="24.000000" viewBox="0 0 24 24" fill="none" xmlns="http://www.w3.org/2000/svg" xmlns:xlink="http://www.w3.org/1999/xlink">
	<desc>
			Created with Pixso.
	</desc>
	<defs>
		<clipPath id="clip3_88">
			<rect id="Outline / Back Outline" width="24.000000" height="24.000000" fill="white" fill-opacity="0"/>
		</clipPath>
	</defs>
	<rect id="Outline / Back Outline" width="24.000000" height="24.000000" fill="#FFFFFF" fill-opacity="0"/>
	<g clip-path="url(#clip3_88)">
		<path id="Union" d="M9.73 16.01C9.91 16.01 10.08 15.94 10.21 15.8C10.45 15.53 10.43 15.12 10.17 14.88L7.28 12.16L15.35 12.16C16.64 12.16 17.7 13.21 17.7 14.51L17.7 16.29C17.7 16.65 17.99 16.94 18.35 16.94C18.7 16.94 19 16.65 19 16.29L19 14.51C19 12.5 17.36 10.86 15.35 10.86L7.27 10.86L7.27 10.85L10.13 8.43C10.4 8.19 10.41 7.78 10.17 7.51C9.93 7.25 9.52 7.23 9.25 7.47L5.23 10.98C4.92 11.26 4.92 11.74 5.23 12.02L9.29 15.84C9.42 15.96 9.57 16.01 9.73 16.01Z" fill="#505050" fill-opacity="1.000000" fill-rule="nonzero"/>
	</g>
</svg>
