<svg width="24.000000" height="24.000000" viewBox="0 0 24 24" fill="none" xmlns="http://www.w3.org/2000/svg" xmlns:xlink="http://www.w3.org/1999/xlink">
	<desc>
			Created with Pixso.
	</desc>
	<defs>
		<clipPath id="clip8_59">
			<rect id="Outline / Comment Outline" width="24.000000" height="24.000000" fill="white" fill-opacity="0"/>
		</clipPath>
	</defs>
	<rect id="Outline / Comment Outline" width="24.000000" height="24.000000" fill="#FFFFFF" fill-opacity="0"/>
	<g clip-path="url(#clip8_59)">
		<path id="Union" d="M7 5C5.34314 5 4 6.34314 4 8L4 18.713C4 19.803 5.26086 20.409 6.11206 19.7281L9.52222 17L17 17C18.6569 17 20 15.6569 20 14L20 8C20 6.34314 18.6569 5 17 5L7 5ZM9.06616 15.7L5.30005 18.713L5.30005 8C5.30005 7.0611 6.06116 6.29999 7 6.29999L17 6.29999C17.9388 6.29999 18.7 7.0611 18.7 8L18.7 14C18.7 14.9389 17.9388 15.7 17 15.7L9.06616 15.7ZM9.14221 8.99353C8.7832 8.99353 8.49219 9.28455 8.49219 9.64355C8.49219 10.0026 8.7832 10.2936 9.14221 10.2936L14.8579 10.2936C15.2168 10.2936 15.5078 10.0026 15.5078 9.64355C15.5078 9.28455 15.2168 8.99353 14.8579 8.99353L9.14221 8.99353ZM9.14221 11.9861C8.7832 11.9861 8.49219 12.2771 8.49219 12.6361C8.49219 12.9951 8.7832 13.2861 9.14221 13.2861L12.7913 13.2861C13.1501 13.2861 13.4412 12.9951 13.4412 12.6361C13.4412 12.2771 13.1501 11.9861 12.7913 11.9861L9.14221 11.9861Z" clip-rule="evenodd" fill="#505050" fill-opacity="1.000000" fill-rule="evenodd"/>
	</g>
</svg>
