<svg width="24.000000" height="24.000000" viewBox="0 0 24 24" fill="none" xmlns="http://www.w3.org/2000/svg" xmlns:xlink="http://www.w3.org/1999/xlink">
	<desc>
			Created with Pixso.
	</desc>
	<defs>
		<clipPath id="clip7_14">
			<rect id="Outline / Calendar Outline" width="24.000000" height="24.000000" fill="white" fill-opacity="0"/>
		</clipPath>
	</defs>
	<g clip-path="url(#clip7_14)">
		<path id="Union" d="M8.13 1.95C8.49 1.95 8.79 2.24 8.79 2.6L8.79 3.98L11.35 3.98L11.35 2.6C11.35 2.24 11.64 1.95 12 1.95C12.35 1.95 12.64 2.24 12.64 2.6L12.64 3.98L15.2 3.98L15.2 2.6C15.2 2.24 15.49 1.95 15.85 1.95C16.2 1.95 16.5 2.24 16.5 2.6L16.5 3.98L17 3.98C18.64 3.98 20 5.33 20 6.98L20 17.12C20 18.78 18.65 20.12 17 20.12L7 20.12C5.34 20.12 4 18.78 4 17.12L4 6.98C4 5.33 5.34 3.98 7 3.98L7.48 3.98L7.48 2.6C7.48 2.24 7.78 1.95 8.13 1.95ZM7.48 6.85L7.48 5.29L7 5.29C6.06 5.29 5.3 6.04 5.3 6.98L5.3 9.35L18.7 9.35L18.7 6.98C18.7 6.04 17.93 5.29 17 5.29L16.5 5.29L16.5 6.85C16.5 7.21 16.2 7.51 15.85 7.51C15.49 7.51 15.2 7.21 15.2 6.85L15.2 5.29L12.64 5.29L12.64 6.85C12.64 7.21 12.35 7.51 12 7.51C11.64 7.51 11.35 7.21 11.35 6.85L11.35 5.29L8.79 5.29L8.79 6.85C8.79 7.21 8.49 7.51 8.13 7.51C7.78 7.51 7.48 7.21 7.48 6.85ZM18.7 10.65L5.3 10.65L5.3 17.12C5.3 18.06 6.06 18.82 7 18.82L17 18.82C17.93 18.82 18.7 18.06 18.7 17.12L18.7 10.65ZM7.53 14C7.53 13.25 8.13 12.65 8.88 12.65L11.2 12.65C11.94 12.65 12.55 13.25 12.55 14L12.55 15.32C12.55 16.06 11.94 16.67 11.2 16.67L8.88 16.67C8.13 16.67 7.53 16.06 7.53 15.32L7.53 14ZM8.84 13.96C8.83 13.97 8.83 13.98 8.83 14L8.83 15.32C8.83 15.33 8.83 15.34 8.84 15.35C8.85 15.36 8.86 15.37 8.88 15.37L11.2 15.37C11.21 15.37 11.22 15.36 11.23 15.35C11.24 15.34 11.25 15.33 11.25 15.32L11.25 14C11.25 13.98 11.24 13.97 11.23 13.96C11.22 13.95 11.21 13.95 11.2 13.95L8.88 13.95C8.86 13.95 8.85 13.95 8.84 13.96Z" fill="#505050" fill-opacity="1.000000" fill-rule="evenodd"/>
	</g>
</svg>
