<svg width="20.000000" height="20.000000" viewBox="0 0 20 20" fill="none" xmlns="http://www.w3.org/2000/svg" xmlns:xlink="http://www.w3.org/1999/xlink">
	<desc>
			Created with Pixso.
	</desc>
	<defs>
		<clipPath id="clip8_710">
			<rect id="Outline / Docs Outline" width="20.000000" height="20.000000" fill="white" fill-opacity="0"/>
		</clipPath>
	</defs>
	<rect id="Outline / Docs Outline" width="20.000000" height="20.000000" fill="#FFFFFF" fill-opacity="0"/>
	<g clip-path="url(#clip8_710)">
		<path id="Union" d="M14.7085 2.79175C16.0891 2.79175 17.2085 3.91101 17.2085 5.29175L17.2085 13.6251C17.2085 15.0057 16.0891 16.1251 14.7085 16.1251L8.04175 16.1251C6.66113 16.1251 5.54175 15.0057 5.54175 13.6251L5.54175 5.29175C5.54175 3.91101 6.66113 2.79175 8.04175 2.79175L14.7085 2.79175ZM8.04175 3.87512L14.7085 3.87512C15.491 3.87512 16.1252 4.5094 16.1252 5.29175L16.1252 13.6251C16.1252 14.4075 15.491 15.0417 14.7085 15.0417L8.04175 15.0417C7.25952 15.0417 6.62524 14.4075 6.62524 13.6251L6.62524 5.29175C6.62524 4.5094 7.25952 3.87512 8.04175 3.87512ZM11.1455 7.12292C11.4448 7.12292 11.6873 6.88049 11.6873 6.5813C11.6873 6.2821 11.4448 6.03967 11.1455 6.03967L8.89209 6.03967C8.59302 6.03967 8.35059 6.2821 8.35059 6.5813C8.35059 6.88049 8.59302 7.12292 8.89209 7.12292L11.1455 7.12292ZM3.3335 7.79175C3.3335 7.49255 3.57593 7.25012 3.87524 7.25012C4.17432 7.25012 4.41675 7.49255 4.41675 7.79175L4.41675 15.6251C4.41675 16.5226 5.14429 17.2501 6.04175 17.2501L13.0417 17.2501C13.3411 17.2501 13.5835 17.4926 13.5835 17.7917C13.5835 18.0909 13.3411 18.3334 13.0417 18.3334L6.04175 18.3334C4.54614 18.3334 3.3335 17.1208 3.3335 15.6251L3.3335 7.79175ZM14.3987 9.50623C14.3987 9.80542 14.1562 10.0479 13.8569 10.0479L8.89209 10.0479C8.59302 10.0479 8.35059 9.80542 8.35059 9.50623C8.35059 9.20703 8.59302 8.9646 8.89209 8.9646L13.8569 8.9646C14.1562 8.9646 14.3987 9.20703 14.3987 9.50623ZM13.8569 12.9728C14.1562 12.9728 14.3987 12.7303 14.3987 12.4312C14.3987 12.132 14.1562 11.8895 13.8569 11.8895L8.89209 11.8895C8.59302 11.8895 8.35059 12.132 8.35059 12.4312C8.35059 12.7303 8.59302 12.9728 8.89209 12.9728L13.8569 12.9728Z" clip-rule="evenodd" fill="#505050" fill-opacity="1.000000" fill-rule="evenodd"/>
	</g>
</svg>
