<svg width="20.000000" height="20.000000" viewBox="0 0 20 20" fill="none" xmlns="http://www.w3.org/2000/svg" xmlns:xlink="http://www.w3.org/1999/xlink">
	<desc>
			Created with Pixso.
	</desc>
	<defs>
		<clipPath id="clip8_722">
			<rect id="Outline / Jpg Outline" width="20.000000" height="20.000000" fill="white" fill-opacity="0"/>
		</clipPath>
	</defs>
	<rect id="Outline / Jpg Outline" width="20.000000" height="20.000000" fill="#FFFFFF" fill-opacity="0"/>
	<g clip-path="url(#clip8_722)">
		<path id="Union" d="M14.7085 2.5C16.0891 2.5 17.2085 3.61926 17.2085 5L17.2085 13.335C17.2085 14.7157 16.0891 15.835 14.7085 15.835L8.04175 15.835L8.04297 15.8334L8.04175 15.8334C6.66113 15.8334 5.54175 14.714 5.54175 13.3334L5.54175 5C5.54175 3.61926 6.66113 2.5 8.04175 2.5L14.7085 2.5ZM16.1252 10.2576L15.5378 9.40808C14.6467 8.11902 12.7241 8.17322 11.9067 9.51038L8.70483 14.75L8.04175 14.75C7.25952 14.75 6.62524 14.1157 6.62524 13.3334L6.62524 5C6.62524 4.21765 7.25952 3.58337 8.04175 3.58337L14.7085 3.58337C15.491 3.58337 16.1252 4.21765 16.1252 5L16.1252 10.2576ZM9.82739 8.875C8.67676 8.875 7.74414 7.94226 7.74414 6.79163C7.74414 5.64099 8.67676 4.70825 9.82739 4.70825C10.978 4.70825 11.9106 5.64099 11.9106 6.79163C11.9106 7.94226 10.978 8.875 9.82739 8.875ZM9.82739 7.79163C9.27515 7.79163 8.82739 7.34387 8.82739 6.79163C8.82739 6.23938 9.27515 5.79163 9.82739 5.79163C10.3796 5.79163 10.8274 6.23938 10.8274 6.79163C10.8274 7.34387 10.3796 7.79163 9.82739 7.79163ZM3.87524 6.95837C3.57593 6.95837 3.3335 7.20081 3.3335 7.5L3.3335 15.3334C3.3335 16.8291 4.54614 18.0416 6.04175 18.0416L13.0417 18.0416C13.3411 18.0416 13.5835 17.7992 13.5835 17.5C13.5835 17.2008 13.3411 16.9584 13.0417 16.9584L6.04175 16.9584C5.14429 16.9584 4.41675 16.2308 4.41675 15.3334L4.41675 7.5C4.41675 7.20081 4.17432 6.95837 3.87524 6.95837ZM16.1252 13.3334C16.1252 14.1157 15.491 14.75 14.7085 14.75L9.97461 14.75L12.8313 10.0753C13.2397 9.40674 14.2012 9.37964 14.6467 10.0242L16.1252 12.1626L16.1252 13.3334Z" clip-rule="evenodd" fill="#505050" fill-opacity="1.000000" fill-rule="evenodd"/>
	</g>
</svg>
