<svg width="24.000000" height="24.000000" viewBox="0 0 24 24" fill="none" xmlns="http://www.w3.org/2000/svg" xmlns:xlink="http://www.w3.org/1999/xlink">
	<desc>
			Created with Pixso.
	</desc>
	<defs>
		<clipPath id="clip3_67">
			<rect id="Outline / Receipt Outline" width="24.000000" height="24.000000" fill="white" fill-opacity="0"/>
		</clipPath>
	</defs>
	<rect id="Outline / Receipt Outline" width="24.000000" height="24.000000" fill="#FFFFFF" fill-opacity="0"/>
	<g clip-path="url(#clip3_67)">
		<path id="Union" d="M5 5.59L5 19.39C5 20.65 6.39 21.41 7.45 20.74L9.06 19.72C9.27 19.59 9.54 19.6 9.73 19.75L11.01 20.69C11.58 21.1 12.34 21.1 12.91 20.69L14.2 19.74C14.39 19.6 14.66 19.59 14.87 19.71L16.54 20.75C17.61 21.41 18.99 20.65 18.99 19.39L19 5.59C19 4.16 17.83 3 16.39 3L7.6 3C6.17 3 5 4.16 5 5.59ZM17.7 5.59L17.69 19.39C17.69 19.63 17.43 19.77 17.23 19.65L15.55 18.61C14.89 18.2 14.05 18.23 13.43 18.69L12.14 19.64C12.03 19.72 11.89 19.72 11.78 19.64L10.5 18.7C9.87 18.24 9.02 18.21 8.36 18.63L6.76 19.64C6.56 19.77 6.3 19.62 6.3 19.39L6.3 5.6C6.3 4.88 6.89 4.3 7.6 4.3L16.39 4.3C17.11 4.3 17.7 4.88 17.7 5.59ZM8 7.64C8 7.28 8.29 6.99 8.65 6.99L15.35 6.99C15.71 6.99 16 7.28 16 7.64C16 8 15.71 8.29 15.35 8.29L8.65 8.29C8.29 8.29 8 8 8 7.64ZM8.65 9.99C8.29 9.99 8 10.28 8 10.64C8 11 8.29 11.29 8.65 11.29L15.35 11.29C15.71 11.29 16 11 16 10.64C16 10.28 15.71 9.99 15.35 9.99L8.65 9.99ZM8 13.64C8 13.28 8.29 12.99 8.65 12.99L11.85 12.99C12.21 12.99 12.5 13.28 12.5 13.64C12.5 14 12.21 14.29 11.85 14.29L8.65 14.29C8.29 14.29 8 14 8 13.64Z" fill="#5095EC" fill-opacity="1.000000" fill-rule="evenodd"/>
	</g>
</svg>
