<svg width="20.000000" height="20.000000" viewBox="0 0 20 20" fill="none" xmlns="http://www.w3.org/2000/svg" xmlns:xlink="http://www.w3.org/1999/xlink">
	<desc>
			Created with Pixso.
	</desc>
	<defs>
		<clipPath id="clip6_327">
			<rect id="telegram_logo_icon_144811 1" width="20.000000" height="20.000000" fill="white" fill-opacity="0"/>
		</clipPath>
	</defs>
	<rect id="telegram_logo_icon_144811 1" width="20.000000" height="20.000000" fill="#FFFFFF" fill-opacity="0"/>
	<g clip-path="url(#clip6_327)">
		<path id="Vector" d="M10 0.31C4.64 0.31 0.31 4.64 0.31 10C0.31 15.35 4.64 19.68 10 19.68C15.35 19.68 19.68 15.35 19.68 10C19.68 4.64 15.35 0.31 10 0.31ZM14.75 6.94L13.16 14.44C13.05 14.97 12.73 15.1 12.29 14.85L9.87 13.06L8.7 14.19C8.57 14.32 8.46 14.43 8.21 14.43L8.38 11.96L12.87 7.91C13.07 7.73 12.83 7.64 12.57 7.81L7.02 11.3L4.63 10.55C4.11 10.39 4.1 10.03 4.74 9.78L14.08 6.18C14.51 6.03 14.89 6.29 14.75 6.94L14.75 6.94Z" fill="#505050" fill-opacity="1.000000" fill-rule="nonzero"/>
	</g>
</svg>
