<svg width="20.000000" height="20.000000" viewBox="0 0 20 20" fill="none" xmlns="http://www.w3.org/2000/svg" xmlns:xlink="http://www.w3.org/1999/xlink">
	<desc>
			Created with Pixso.
	</desc>
	<defs>
		<clipPath id="clip6_338">
			<rect id="twitter_2_icon-icons.com_59206 1" width="20.000000" height="20.000000" fill="white" fill-opacity="0"/>
		</clipPath>
	</defs>
	<rect id="twitter_2_icon-icons.com_59206 1" width="20.000000" height="20.000000" fill="#FFFFFF" fill-opacity="0"/>
	<g clip-path="url(#clip6_338)">
		<path id="Vector" d="M19.3 10C19.3 15.14 15.14 19.3 10 19.3C4.85 19.3 0.69 15.14 0.69 10C0.69 4.85 4.85 0.69 10 0.69C15.14 0.69 19.3 4.85 19.3 10Z" fill="#505050" fill-opacity="1.000000" fill-rule="evenodd"/>
		<path id="Vector" d="M5.88 6.58C5.88 6.58 7.36 8.25 9.8 8.53C9.8 8.53 9.69 7.13 10.93 6.35C10.93 6.35 12.21 5.5 13.18 6.74C13.18 6.74 14.11 6.55 14.46 6.31C14.46 6.31 14.18 6.84 13.72 7.3L14.77 7.09L13.8 8.14C13.8 8.14 14.18 11.67 10.32 13.53C10.32 13.53 7.32 14.62 5.22 13.18C5.22 13.18 7.78 12.79 8.05 12.21C8.05 12.21 6.69 12.05 6.34 10.89L7.08 10.85C7.08 10.85 5.8 10.73 5.65 8.91L6.5 9.02C6.5 9.03 5.14 8.64 5.88 6.58Z" fill="#FFFFFF" fill-opacity="1.000000" fill-rule="nonzero"/>
	</g>
</svg>
